<?xml version="1.0" standalone="no"?><!DOCTYPE svg PUBLIC "-//W3C//DTD SVG 1.1//EN" "http://www.w3.org/Graphics/SVG/1.1/DTD/svg11.dtd"><svg t="1524880932704" class="icon" style="" viewBox="0 0 1024 1024" version="1.1" xmlns="http://www.w3.org/2000/svg" p-id="3449" xmlns:xlink="http://www.w3.org/1999/xlink" width="200" height="200"><defs><style type="text/css"></style></defs><path d="M771.87584 901.65248l-111.3344 0c-61.47584 0-111.32928-49.83808-111.32928-111.32928l0-111.32928c0-61.48096 49.85344-111.32928 111.32928-111.32928l111.3344 0c61.48096 0 111.32928 49.84832 111.32928 111.32928l0 111.32928C883.20512 851.80928 833.3568 901.65248 771.87584 901.65248zM827.52512 678.9888c0-30.74048-24.91392-55.64928-55.64928-55.64928l-111.3344 0c-30.73536 0-55.66976 24.9088-55.66976 55.64928l0 111.32928c0 30.75072 24.9344 55.68 55.66976 55.68l111.3344 0c30.73536 0 55.64928-24.92928 55.64928-55.68L827.52512 678.9888zM771.87584 122.34752c61.48096 0 111.32928 49.84832 111.32928 111.32928l0 111.3344c0 61.48096-49.84832 111.32928-111.32928 111.32928l-111.3344 0c-61.47584 0-111.32928-49.8432-111.32928-111.32928L549.21216 233.6768c0-61.48096 49.85344-111.32928 111.32928-111.32928M827.52512 233.6768c0-30.74048-24.91392-55.66464-55.64928-55.66464l-111.3344 0c-30.73536 0-55.66976 24.91904-55.66976 55.66464l0 111.3344c0 30.74048 24.9344 55.66464 55.66976 55.66464l111.3344 0c30.73536 0 55.64928-24.92416 55.64928-55.66464L827.52512 233.6768zM326.53824 901.65248 215.2192 901.65248c-61.48608 0-111.3344-49.83808-111.3344-111.32928l0-111.32928c0-61.48096 49.84832-111.32928 111.3344-111.32928l111.31904 0c61.50144 0 111.34464 49.84832 111.34464 111.32928l0 111.32928C437.88288 851.80928 388.0448 901.65248 326.53824 901.65248zM382.21312 678.9888c0-30.74048-24.91392-55.64928-55.67488-55.64928L215.2192 623.33952c-30.7456 0-55.66976 24.9088-55.66976 55.64928l0 111.32928c0 30.75072 24.91904 55.68 55.66976 55.68l111.31904 0c30.76096 0 55.67488-24.92928 55.67488-55.68L382.21312 678.9888zM326.53824 122.34752c61.50144 0 111.34464 49.84832 111.34464 111.32928l0 111.3344c0 61.48096-49.8432 111.32928-111.34464 111.32928L215.2192 456.34048c-61.48608 0-111.3344-49.8432-111.3344-111.32928L103.8848 233.6768c0-61.48096 49.84832-111.32928 111.3344-111.32928M382.21312 233.6768c0-30.74048-24.91392-55.66464-55.67488-55.66464L215.2192 178.01216c-30.7456 0-55.66976 24.91904-55.66976 55.66464l0 111.3344c0 30.74048 24.91904 55.66464 55.66976 55.66464l111.31904 0c30.76096 0 55.67488-24.92416 55.67488-55.66464L382.21312 233.6768z" p-id="3450"></path></svg>