<?xml version="1.0" standalone="no"?><!DOCTYPE svg PUBLIC "-//W3C//DTD SVG 1.1//EN" "http://www.w3.org/Graphics/SVG/1.1/DTD/svg11.dtd"><svg t="1524883030688" class="icon" style="" viewBox="0 0 1024 1024" version="1.1" xmlns="http://www.w3.org/2000/svg" p-id="6044" xmlns:xlink="http://www.w3.org/1999/xlink" width="200" height="200"><defs><style type="text/css"></style></defs><path d="M991.31253 472.200552 878.386598 472.200552 878.386598 262.231423c0-43.697221-35.433-79.129198-79.150688-79.129198L207.331046 183.102225c-43.691081 0-79.136362 35.431977-79.136362 79.129198l0 380.871497c0 43.704384 35.44528 79.148641 79.136362 79.148641l586.423013 0 0 31.884175L30.363542 754.135736c-7.054673 0-12.780071 5.724375-12.780071 12.753465l0 22.337751c0 7.04137 5.726421 12.765745 12.780071 12.765745l763.390517 0 0 23.814382c0 8.327666 6.769171 15.08865 15.102976 15.08865l182.454472 0c8.334829 0 15.103999-6.760984 15.103999-15.08865L1006.415506 487.306598C1006.41653 478.978932 999.647359 472.200552 991.31253 472.200552zM520.051373 786.042423l-33.507138 0c-4.411473 0-7.980765-3.569292-7.980765-7.966439 0-4.41659 3.569292-7.973602 7.980765-7.973602l33.507138 0c4.3951 0 7.963369 3.555989 7.963369 7.973602C528.014742 782.473131 524.446473 786.042423 520.051373 786.042423zM886.775662 483.841683l26.618241 0c4.640694 0 8.403391 0.89744 8.403391 1.982144l0 4.982478c0 1.100054-3.762697 2.009773-8.403391 2.009773l-26.618241 0c-4.545526 0-8.239662-0.873903-8.389064-1.943258l0-5.115508C878.536001 484.703307 882.230136 483.841683 886.775662 483.841683zM185.791473 668.410306c-8.327666 0-15.08251-6.740518-15.08251-15.06716L170.708963 251.992221c0-8.327666 6.754844-15.063067 15.08251-15.063067l635.004475 0c8.320503 0 15.075347 6.735401 15.075347 15.063067l0 220.209354-27.01426 0c-8.333806 0-15.102976 6.777357-15.102976 15.106046l0 181.103708L185.791473 668.411329zM835.871295 506.180458 835.871295 653.343145c0 8.326643-6.754844 15.06716-15.075347 15.06716l-2.977821 0L817.818127 506.180458 835.871295 506.180458zM817.818127 720.037127c34.746362-8.364505 60.568471-39.630602 60.568471-76.933183L878.386598 506.180458l103.96484 0 0 249.51889c-1.815345-0.995677-3.89982-1.563612-6.121418-1.563612L817.818127 754.135736 817.818127 720.037127zM914.555355 820.494073c0 2.920516-2.51017 5.314029-5.585205 5.314029L891.201461 825.808102c-3.072989 0-5.586229-2.393513-5.586229-5.314029l0-13.281491c0-2.588965 1.937119-4.732791 4.489244-5.217838l19.963681 0c2.553149 0.485047 4.488221 2.628874 4.488221 5.217838L914.556379 820.494073z" p-id="6045"></path></svg>