<?xml version="1.0" standalone="no"?><!DOCTYPE svg PUBLIC "-//W3C//DTD SVG 1.1//EN" "http://www.w3.org/Graphics/SVG/1.1/DTD/svg11.dtd"><svg t="1524882990523" class="icon" style="" viewBox="0 0 1024 1024" version="1.1" xmlns="http://www.w3.org/2000/svg" p-id="5915" xmlns:xlink="http://www.w3.org/1999/xlink" width="200" height="200"><defs><style type="text/css"></style></defs><path d="M508.885333 81.777778c14.990222 0 29.568 2.944 39.992889 8.078222L836.266667 231.296c4.565333 2.247111 15.189333 8.419556 15.246222 17.265778 0.042667 6.328889-5.845333 13.112889-15.744 18.133333L545.336889 414.165333c-11.192889 5.688889-26.766222 8.945778-42.709333 8.945778-14.990222 0-29.568-2.944-39.992889-8.078222l-287.402667-141.44c-4.565333-2.247111-15.189333-8.419556-15.246222-17.265778-0.042667-6.328889 5.845333-13.112889 15.758222-18.133333L466.176 90.737778c11.207111-5.703111 26.766222-8.96 42.709333-8.96m0-28.444445c-20.565333 0-40.305778 4.280889-55.580444 12.032l-290.417778 147.470223c-20.010667 10.168889-31.431111 26.083556-31.317333 43.676444 0.113778 17.408 11.463111 32.938667 31.146666 42.609778l287.388445 141.425778c14.407111 7.096889 33.066667 10.993778 52.551111 10.993777 20.565333 0 40.305778-4.280889 55.580444-12.032l290.432-147.470222c20.010667-10.168889 31.416889-26.083556 31.303112-43.676444-0.113778-17.393778-11.463111-32.938667-31.132445-42.609778L561.436444 64.327111c-14.407111-7.082667-33.066667-10.993778-52.551111-10.993778zM145.208889 373.390222c5.560889 0 11.747556 1.649778 18.289778 4.835556l257.408 135.054222c22.755556 11.221333 38.030222 35.072 38.030222 50.289778v363.164444c0 9.699556-5.973333 15.488-15.985778 15.488-5.560889 0-11.761778-1.649778-18.289778-4.821333L167.253333 802.346667c-22.755556-11.235556-38.030222-35.072-38.030222-50.289778V388.864c0.014222-9.685333 5.987556-15.473778 15.985778-15.473778m0-28.444444c-25.728 0-44.416 18.474667-44.416 43.932444v363.178667c0 28.103111 23.139556 60.629333 53.888 75.804444l256.782222 134.741334 0.625778 0.312889c10.567111 5.148444 20.949333 7.765333 30.876444 7.765333 25.742222 0 44.416-18.474667 44.430223-43.918222V563.569778c0-28.103111-23.153778-60.629333-53.888-75.804445l-256.782223-134.741333-0.64-0.312889c-10.567111-5.148444-20.949333-7.765333-30.876444-7.765333zM878.791111 373.376c9.998222 0 15.971556 5.788444 15.971556 15.488v363.178667c0 15.217778-15.288889 39.068444-38.656 50.616889l-257.009778 134.855111c-6.513778 3.128889-12.586667 4.721778-18.048 4.721777-10.012444 0-15.985778-5.788444-15.985778-15.473777V563.569778c0-15.232 15.274667-39.068444 38.656-50.616889l257.009778-134.855111c6.513778-3.128889 12.600889-4.721778 18.062222-4.721778m0-28.444444c-9.927111 0-20.323556 2.616889-30.876444 7.779555L590.506667 487.765333c-30.748444 15.175111-53.888 47.701333-53.888 75.804445v363.178666c0 25.443556 18.688 43.918222 44.430222 43.918223 9.927111 0 20.309333-2.616889 30.876444-7.765334l257.408-135.054222c30.748444-15.175111 53.888-47.701333 53.888-75.804444V388.864c-0.014222-25.457778-18.688-43.932444-44.430222-43.932444z" fill="" p-id="5916"></path></svg>