<?xml version="1.0" standalone="no"?><!DOCTYPE svg PUBLIC "-//W3C//DTD SVG 1.1//EN" "http://www.w3.org/Graphics/SVG/1.1/DTD/svg11.dtd"><svg t="1524882917716" class="icon" style="" viewBox="0 0 1024 1024" version="1.1" xmlns="http://www.w3.org/2000/svg" p-id="5082" xmlns:xlink="http://www.w3.org/1999/xlink" width="200" height="200"><defs><style type="text/css"></style></defs><path d="M499.428571 499.642514c50.570971-40.250514 83.106743-102.142171 83.106743-171.642514 0-121.000229-98.428343-219.428571-219.428571-219.428571s-219.428571 98.428343-219.428571 219.428571c0 70.250057 33.322057 132.714057 84.821943 172.928C94.677943 555.320686 0 686.571886 0 839.678171L0 877.714286c0 20.214857 16.356571 36.571429 36.571429 36.571429l658.285714 0c20.214857 0 36.571429-16.356571 36.571429-36.571429l0-38.036114C731.428571 685.249829 635.072 553.179429 499.428571 499.642514zM216.821029 328c0-80.6784 65.607314-146.285714 146.285714-146.285714s146.285714 65.607314 146.285714 146.285714c0 79.643429-64.036571 144.356571-143.285029 146.000457-0.142629 0-0.250514-0.036571-0.393143-0.036571-1.285486 0-2.570971 0.1792-3.856457 0.1792C281.786514 473.464686 216.821029 408.250514 216.821029 328zM73.142857 841.142857l0-1.464686c0-159.8208 128.8576-289.892571 288.107886-292.320914 0.607086 0 1.214171 0.071314 1.857829 0.071314 1.499429 0 2.964114-0.213943 4.463543-0.213943C528.036571 548.214857 658.285714 678.999771 658.285714 839.678171L73.142857 841.142857z" p-id="5083"></path><path d="M693.392457 256l329.142857 0 0 73.142857-329.142857 0 0-73.142857Z" p-id="5084"></path><path d="M693.392457 438.857143l329.142857 0 0 73.142857-329.142857 0 0-73.142857Z" p-id="5085"></path><path d="M804.571429 621.714286l217.963886 0 0 73.142857-217.963886 0 0-73.142857Z" p-id="5086"></path></svg>