<?xml version="1.0" standalone="no"?><!DOCTYPE svg PUBLIC "-//W3C//DTD SVG 1.1//EN" "http://www.w3.org/Graphics/SVG/1.1/DTD/svg11.dtd"><svg t="1524882715073" class="icon" style="" viewBox="0 0 1024 1024" version="1.1" xmlns="http://www.w3.org/2000/svg" p-id="4952" xmlns:xlink="http://www.w3.org/1999/xlink" width="200" height="200"><defs><style type="text/css"></style></defs><path d="M372.536668 527.623839c0 0-0.025583-0.025583-0.025583-0.050142 0-0.036839 0.025583-0.064468 0.025583-0.090051 0-11.374048-9.441023-20.60427-21.118993-20.60427-76.603679 0-138.912793-64.965617-138.912793-144.841829 0-79.859839 62.309114-144.844899 138.912793-144.844899 11.67797 0 21.118993-9.216919 21.118993-20.603247 0-11.388375-9.441023-20.603247-21.118993-20.603247-99.883895 0-181.145663 83.463923-181.145663 186.051393 0 68.421322 36.245506 128.181381 89.963964 160.503531C146.127102 561.913806 63.582107 672.802336 63.582107 803.369044c0 11.388375 9.44307 20.603247 21.123087 20.603247 11.668761 0 21.11183-9.214872 21.11183-20.603247 0-140.684136 110.169145-255.115352 245.600651-255.115352C363.095645 548.253692 372.536668 539.050076 372.536668 527.623839z" p-id="4953"></path><path d="M701.996239 536.789593c68.468394-36.663014 115.049293-107.536178 115.049293-188.988282 0-119.013581-99.207489-215.821417-221.144656-215.821417-121.946376 0-221.138516 96.80886-221.138516 215.821417 0 82.259492 47.438429 153.865343 117.007901 190.259228C346.96527 581.577658 241.414305 713.329355 241.414305 868.722494c0 11.386328 9.44307 20.618597 21.113877 20.618597 11.664667 0 21.107737-9.232269 21.107737-20.618597 0-168.014598 140.103922-304.731376 310.704414-304.795844 1.432629 0.14224 2.771113-0.177032 4.134157-0.357134 1.919722 0.357134 3.876284 0.561795 5.9055 0.357134 170.786735 0.064468 311.035966 136.780223 311.035966 304.795844 0 11.386328 9.454326 20.618597 21.13639 20.618597 11.694343 0 21.135366-9.232269 21.135366-20.618597C957.686688 711.543685 849.514013 578.75538 701.996239 536.789593zM595.900875 522.374278c-98.662067 0-178.917926-78.320787-178.917926-174.572968 0-96.296183 80.255859-174.615946 178.917926-174.615946 98.651834 0 178.909739 78.320787 178.909739 174.615946C774.810614 444.054515 694.552709 522.374278 595.900875 522.374278z" p-id="4954"></path></svg>