<?xml version="1.0" standalone="no"?><!DOCTYPE svg PUBLIC "-//W3C//DTD SVG 1.1//EN" "http://www.w3.org/Graphics/SVG/1.1/DTD/svg11.dtd"><svg t="1522833719087" class="icon" style="" viewBox="0 0 1024 1024" version="1.1" xmlns="http://www.w3.org/2000/svg" p-id="2504" xmlns:xlink="http://www.w3.org/1999/xlink" width="200" height="200"><defs><style type="text/css"></style></defs><path d="M706.474667 640.128A21.290667 21.290667 0 0 1 725.333333 661.333333c0 11.072-8.256 20.053333-18.858666 21.205334a21.184 21.184 0 0 1-6.08 12.586666l-90.602667 90.602667a21.397333 21.397333 0 0 1-30.122667-0.064 21.248 21.248 0 0 1-0.064-30.122667L652.501333 682.666667H362.517333A21.269333 21.269333 0 0 1 341.333333 661.333333c0-11.861333 9.493333-21.333333 21.184-21.333333h289.984l-72.896-72.874667a21.248 21.248 0 0 1 0.064-30.122666 21.397333 21.397333 0 0 1 30.122667-0.064l90.602667 90.602666c3.52 3.541333 5.546667 7.978667 6.08 12.586667zM371.498667 341.333333h289.984c11.690667 0 21.184 9.472 21.184 21.333334 0 11.776-9.493333 21.333333-21.184 21.333333H371.498667l72.896 72.874667a21.248 21.248 0 0 1-0.064 30.122666c-8.32 8.341333-21.909333 8.256-30.122667 0.064l-90.602667-90.602666a21.184 21.184 0 0 1-6.08-12.586667A21.226667 21.226667 0 0 1 298.666667 362.666667c0-10.986667 8.256-20.032 18.858666-21.205334a21.184 21.184 0 0 1 6.08-12.586666l90.602667-90.602667a21.397333 21.397333 0 0 1 30.122667 0.064 21.248 21.248 0 0 1 0.064 30.122667L371.498667 341.333333zM512 938.666667C276.352 938.666667 85.333333 747.648 85.333333 512S276.352 85.333333 512 85.333333s426.666667 191.018667 426.666667 426.666667-191.018667 426.666667-426.666667 426.666667z m0-42.666667c212.074667 0 384-171.925333 384-384S724.074667 128 512 128 128 299.925333 128 512s171.925333 384 384 384z" fill="#3D3D3D" p-id="2505"></path></svg>